<svg id="SvgjsSvg1001" width="288" height="288" xmlns="http://www.w3.org/2000/svg" version="1.1" xmlns:xlink="http://www.w3.org/1999/xlink" xmlns:svgjs="http://svgjs.com/svgjs"><defs id="SvgjsDefs1002"></defs><g id="SvgjsG1008"><svg xmlns="http://www.w3.org/2000/svg" width="288" height="288" viewBox="0 0 24 24"><path fill="none" d="M0 0h24v24H0z"></path><path d="M7.83 20A3.001 3.001 0 1 1 4 16.17V7.83A3.001 3.001 0 1 1 7.83 4h8.34A3.001 3.001 0 1 1 20 7.83v8.34A3.001 3.001 0 1 1 16.17 20H7.83zm0-2h8.34A3.008 3.008 0 0 1 18 16.17V7.83A3.008 3.008 0 0 1 16.17 6H7.83A3.008 3.008 0 0 1 6 7.83v8.34A3.008 3.008 0 0 1 7.83 18zM5 6a1 1 0 1 0 0-2 1 1 0 0 0 0 2zm14 0a1 1 0 1 0 0-2 1 1 0 0 0 0 2zm0 14a1 1 0 1 0 0-2 1 1 0 0 0 0 2zM5 20a1 1 0 1 0 0-2 1 1 0 0 0 0 2z" fill="#ffffff" class="color000 svgShape"></path></svg></g></svg>