<svg id="SvgjsSvg1011" width="288" height="288" xmlns="http://www.w3.org/2000/svg" version="1.1" xmlns:xlink="http://www.w3.org/1999/xlink" xmlns:svgjs="http://svgjs.com/svgjs"><defs id="SvgjsDefs1012"></defs><g id="SvgjsG1013"><svg xmlns="http://www.w3.org/2000/svg" enable-background="new 0 0 330 330" viewBox="0 0 330 330" width="288" height="288"><path d="M165,160c-11.028,0-20,8.972-20,20s8.972,20,20,20c11.028,0,20-8.972,20-20S176.028,160,165,160z" fill="#ffffff" class="color000 svgShape"></path><path d="M290,0h-60H40c-8.284,0-15,6.716-15,15v300c0,8.284,6.716,15,15,15h190h60c8.284,0,15-6.716,15-15V15
		C305,6.716,298.284,0,290,0z M55,30h160v270H55V30z M275,300h-30V30h30V300z" fill="#ffffff" class="color000 svgShape"></path></svg></g></svg>