<svg id="SvgjsSvg1001" width="288" height="288" xmlns="http://www.w3.org/2000/svg" version="1.1" xmlns:xlink="http://www.w3.org/1999/xlink" xmlns:svgjs="http://svgjs.com/svgjs"><defs id="SvgjsDefs1002"></defs><g id="SvgjsG1008"><svg xmlns="http://www.w3.org/2000/svg" width="288" height="288" viewBox="0 0 512 512"><path d="M318 123.645l-61.5 35.7-61.76-35.7 61.76-35.7zm93.68 54.19l-61.76 35.7 61.76 35.7 61.5-35.7zm-294.39 80.64l61.76 35.7 61.5-35.7-61.5-35.7zm139.52-80.57l-61.76 35.7 61.76 35.7 61.5-35.7zM31 298.365l62 35.69v-71l-62-35.65v71zm373-26l-62 35.69v70.94l62-35.66v-70.97zm-225.11-139.4l-61.76 35.7 61.76 35.7 61.5-35.7zM109 343.305l62 35.69v-70.94l-62-35.69v71zm225.41-120.45l-61.76 35.7 61.76 35.7 61.5-35.7zM249 353.055l-62-35.7v71l62 35.7v-71zm77-35.67l-61 35.67v70.94l61-35.66v-70.95zm8.07-184.5l-61.76 35.7 61.76 35.7 61.5-35.7zm-232.6 44.95l-61.77 35.7 61.76 35.7 61.5-35.7zM481 227.565l-61 35.66v70.94l61-35.66v-70.94zm-286.11 75.93l61.76 35.7 61.5-35.7-61.5-35.7z" class="cls-1 color000 svgShape" fill="#ffffff"></path></svg></g></svg>